<?xml version="1.0" standalone="no"?>
<!DOCTYPE svg PUBLIC "-//W3C//DTD SVG 1.1//EN" "http://www.w3.org/Graphics/SVG/1.1/DTD/svg11.dtd" >
<svg xmlns="http://www.w3.org/2000/svg" xmlns:xlink="http://www.w3.org/1999/xlink" version="1.1">
<metadata>
Created by FontForge 20170731 at Thu Nov  2 15:13:57 2017
 By Aleksey,,,
Goma Shin
</metadata>
<defs>
<font id="Nandaka-Western" horiz-adv-x="512" >
  <font-face 
    font-family="Nandaka Western"
    font-weight="400"
    font-stretch="normal"
    units-per-em="1024"
    panose-1="2 11 6 0 0 0 0 0 0 0"
    ascent="880"
    descent="-144"
    x-height="802"
    cap-height="802"
    bbox="12 -104 958 882"
    underline-thickness="48"
    underline-position="-168"
    unicode-range="U+0020-2219"
  />
<missing-glyph 
d="M201 313v110h110v-110h-110z" />
    <glyph glyph-name=".notdef" 
d="M201 313v110h110v-110h-110z" />
    <glyph glyph-name="glyph1" horiz-adv-x="0" 
 />
    <glyph glyph-name="nonmarkingreturn" horiz-adv-x="341" 
 />
    <glyph glyph-name="space" unicode=" " horiz-adv-x="280" 
 />
    <glyph glyph-name="exclam" unicode="!" horiz-adv-x="358" 
d="M87 0q-51 4 -44 88l17 112l42 18h154l42 -18l16 -112q8 -84 -44 -88h-183zM102 294q-6 66 -54 102q48 34 54 92q-43 116 -58 226q-8 84 44 88h182q52 -4 44 -88q-15 -110 -58 -226q6 -58 54 -92q-48 -36 -54 -102q-5 -22 -18 -24h-116q-13 2 -20 24z" />
    <glyph glyph-name="quotedbl" unicode="&#x22;" horiz-adv-x="328" 
d="M108 872q52 -4 44 -88l-26 -154q-4 -24 -18 -26h-28q-14 2 -18 26l-26 154q-8 84 44 88h28zM248 872q52 -4 44 -88l-26 -154q-4 -24 -18 -26h-28q-14 2 -18 26l-26 154q-8 84 44 88h28z" />
    <glyph glyph-name="numbersign" unicode="#" 
 />
    <glyph glyph-name="dollar" unicode="$" 
 />
    <glyph glyph-name="percent" unicode="%" 
 />
    <glyph glyph-name="ampersand" unicode="&#x26;" 
 />
    <glyph glyph-name="quotesingle" unicode="'" horiz-adv-x="200" 
d="M126 872q52 -4 44 -88l-26 -154q-4 -24 -18 -26h-62q-14 2 -18 26l-26 154q-8 84 44 88h62z" />
    <glyph glyph-name="parenleft" unicode="(" 
 />
    <glyph glyph-name="parenright" unicode=")" 
 />
    <glyph glyph-name="asterisk" unicode="*" 
 />
    <glyph glyph-name="plus" unicode="+" horiz-adv-x="422" 
d="M352 472q24 -4 26 -18v-108q-2 -14 -26 -18h-71v-69q-4 -24 -18 -26h-108q-14 2 -18 26v69h-67q-24 4 -26 18v108q2 14 26 18h67v69q4 24 18 26h108q14 -2 18 -26v-69h71z" />
    <glyph glyph-name="comma" unicode="," horiz-adv-x="306" 
d="M12 -84q24 88 24 193t51 109h131q52 -4 52 -109t-80.5 -143t-177.5 -50z" />
    <glyph glyph-name="hyphen" unicode="-" horiz-adv-x="410" 
d="M340 474q24 -4 26 -18v-108q-2 -14 -26 -18h-54q-48 -8 -81 -52q-29 41 -70 52h-65q-24 4 -26 18v108q2 14 26 18h50q53 6 87 54q34 -45 81 -54h52z" />
    <glyph glyph-name="period" unicode="." horiz-adv-x="306" 
d="M87 0q-51 4 -51 109t51 109h131q52 -4 52 -109t-52 -109h-131z" />
    <glyph glyph-name="slash" unicode="/" 
 />
    <glyph glyph-name="zero" unicode="0" horiz-adv-x="596" 
d="M260 0q-82 3 -135.5 62t-50.5 252q-6 52 -54 88q48 36 54 88q-3 191 50.5 250t135.5 62h76q82 -3 135.5 -62t50.5 -250q6 -52 54 -88q-48 -36 -54 -88q3 -193 -50.5 -252t-135.5 -62h-76zM270 604q-27 -6 -37.5 -39.5t-10.5 -73.5q6 -53 52 -89q-46 -36 -52 -88
q0 -41 10.5 -75.5t37.5 -40.5h56q27 6 37.5 40.5t10.5 75.5q-6 52 -52 88q46 36 52 89q0 40 -10.5 73.5t-37.5 39.5h-56z" />
    <glyph glyph-name="one" unicode="1" horiz-adv-x="358" 
d="M87 0q-51 4 -44 88l17 112l42 18v96q-6 52 -54 88q48 34 54 86v98l-43 18l-15 110q-8 84 44 88h112q68 -4 56 -102v-212q6 -52 54 -86q-48 -36 -54 -88v-96l42 -18l16 -112q8 -84 -44 -88h-183z" />
    <glyph glyph-name="two" unicode="2" horiz-adv-x="564" 
d="M426 410q-39 -21 -40 -84q-69 -6 -96 -46l-50 -82h60q27 6 37 39.5t11 58.5q4 24 18 26h110q14 -2 18 -26l26 -208q8 -84 -44 -88h-88q-39 4 -41 47q-13 -46 -45 -47h-208q-57 0 -50 87v55q5 36 26 62l110 152q23 33 20 96q77 -7 108 18q41 33 54 68q3 34 -6 47t-36 19
h-56q-27 -6 -37 -39.5t-11 -58.5q-4 -24 -18 -26h-110q-14 2 -18 26l-26 208q-8 84 44 88h88q39 -4 41 -47q13 46 45 47h68q82 -3 135.5 -62t54.5 -186q3 -66 -94 -144z" />
    <glyph glyph-name="three" unicode="3" horiz-adv-x="574" 
d="M330 0h-78q-82 3 -134 61t-52 211v25q4 23 18 25h112q14 -2 18 -26q0 -24 10.5 -57t37.5 -39h50q33 6 43.5 39.5t12.5 70.5q-15 34 -48 34h-102q-24 4 -26 18v80q2 14 26 18h102q31 1 41.5 22t2.5 62q-17 54 -44 60h-56q-27 -6 -37 -39.5t-11 -58.5q-4 -24 -18 -26h-110
q-14 2 -18 26l-26 208q-8 84 44 88h88q39 -4 41 -47q13 46 45 47h68q133 -10 168 -126q21 -52 56 -82q-36 -42 -44 -102t-58 -90q50 -32 58 -92t44 -104q-35 -28 -49.5 -72.5t-53.5 -86.5t-121 -47z" />
    <glyph glyph-name="four" unicode="4" horiz-adv-x="584" 
d="M343 398v204h-18l-85 -204h103zM329 0q-51 4 -44 88l17 112l42 18v63h-224q-47 1 -65.5 26.5t-6.5 70.5l180 378q36 51 116 46h168q52 -4 44 -88l-15 -110l-43 -18v-98q6 -52 54 -86q-48 -36 -54 -88v-96l42 -18l16 -112q8 -84 -44 -88h-183z" />
    <glyph glyph-name="five" unicode="5" horiz-adv-x="634" 
d="M238 0q-82 3 -134 61t-52 211v25q4 23 18 25h112q14 -2 18 -26q0 -24 10.5 -57t37.5 -39h92q32 -3 50.5 18.5t13.5 70.5q-4 47 -54 54h-190q-59 1 -62 53q1 52 -48 92q51 41 52 98l-43 18l-15 110q-8 84 44 88h284q32 -1 45 -47q2 43 41 47h88q52 -4 44 -88l-26 -208
q-4 -24 -18 -26h-110q-14 2 -18 26q-1 25 -11 58.5t-37 39.5h-114v-144h132q60 -1 102.5 -47t45.5 -103t48 -96q-45 -39 -57.5 -88t-48 -86t-102.5 -40h-138z" />
    <glyph glyph-name="six" unicode="6" horiz-adv-x="558" 
d="M253 0q-75 3 -128.5 62t-50.5 252q-6 52 -54 88q48 36 54 88q0 193 52 251t127 61h7h76q82 -3 134 -61t52 -211v-25q-4 -23 -18 -25h-112q-14 2 -18 26q0 24 -10.5 57t-37.5 39h-56q-27 -6 -37.5 -39.5t-10.5 -74.5v-28h170q117 -1 130 -112v-76q0 -153 -51 -210
t-130 -62h-88zM222 314q0 -41 10.5 -74.5t37.5 -39.5h56q27 6 37.5 39t10.5 57v6q-1 45 -52 42h-100v-30z" />
    <glyph glyph-name="seven" unicode="7" horiz-adv-x="613" 
d="M392 604h-128q-27 -6 -37 -39.5t-11 -58.5q-4 -24 -18 -26h-110q-14 2 -18 26l-26 208q-8 84 44 88h88q39 -4 41 -47q13 46 45 47h268q57 0 50 -87q-4 -56 -28 -97l-76 -180q-12 -56 8 -96q-57 -18 -72 -52l-26 -72l42 -18l16 -112q8 -84 -44 -88h-183q-51 4 -44 88
l17 112l42 18l46 110q19 52 -10 102q53 12 74 54z" />
    <glyph glyph-name="eight" unicode="8" horiz-adv-x="586" 
d="M342 0h-98q-82 5 -121 47t-53.5 86.5t-49.5 72.5q36 44 44 104t58 92q-50 30 -58 90t-44 102q35 30 56 82q35 116 168 126h98q133 -10 168 -126q21 -52 56 -82q-36 -42 -44 -102t-58 -90q50 -32 58 -92t44 -104q-35 -28 -49.5 -72.5t-53.5 -86.5t-121 -47zM324 200
q33 6 43.5 39.5t12.5 70.5q-15 34 -48 34h-78q-33 0 -48 -34q2 -37 12.5 -70.5t43.5 -39.5h62zM332 460q31 1 41.5 22t2.5 62q-17 54 -44 60h-78q-27 -6 -44 -60q-8 -41 2.5 -62t41.5 -22h78z" />
    <glyph glyph-name="nine" unicode="9" horiz-adv-x="558" 
d="M305 802q75 -3 128.5 -62t50.5 -252q6 -52 54 -88q-48 -36 -54 -88q0 -193 -52 -251t-127 -61h-7h-76q-82 3 -134 61t-52 211v25q4 23 18 25h112q14 -2 18 -26q0 -24 10.5 -57t37.5 -39h56q27 6 37.5 39.5t10.5 74.5v28h-170q-117 1 -130 112v76q0 153 51 210t130 62h88z
M336 488q0 41 -10.5 74.5t-37.5 39.5h-56q-27 -6 -37.5 -39t-10.5 -57v-6q1 -45 52 -42h100v30z" />
    <glyph glyph-name="colon" unicode=":" horiz-adv-x="326" 
d="M97 122q-51 4 -51 109t51 109h131q52 -4 52 -109t-52 -109h-131zM97 462q-51 4 -51 109t51 109h131q52 -4 52 -109t-52 -109h-131z" />
    <glyph glyph-name="semicolon" unicode=";" horiz-adv-x="326" 
d="M97 462q-51 4 -51 109t51 109h131q52 -4 52 -109t-52 -109h-131zM22 38q24 88 24 193t51 109h131q52 -4 52 -109t-80.5 -143t-177.5 -50z" />
    <glyph glyph-name="less" unicode="&#x3c;" 
 />
    <glyph glyph-name="equal" unicode="=" horiz-adv-x="410" 
d="M340 598q24 -4 26 -18v-108q-2 -14 -26 -18h-270q-24 4 -26 18v108q2 14 26 18h270zM340 356q24 -4 26 -18v-108q-2 -14 -26 -18h-270q-24 4 -26 18v108q2 14 26 18h270z" />
    <glyph glyph-name="greater" unicode="&#x3e;" 
 />
    <glyph glyph-name="question" unicode="?" horiz-adv-x="558" 
d="M230 270q-14 2 -18 26v44q3 41 22 80q10 27 2 60q46 -6 66 0t42.5 21.5t23.5 36.5q1 30 -10 45t-38 21h-56q-27 -6 -37 -39.5t-11 -58.5q-4 -24 -18 -26h-110q-14 2 -18 26l-26 208q-8 84 44 88h88q39 -4 41 -47q13 46 45 47h68q82 -3 135.5 -62t56.5 -206
q-5 -53 -43 -81.5t-53.5 -50.5t0.5 -70q-56 11 -62 -36q-4 -24 -18 -26h-116zM201 0q-51 4 -44 88l17 112l42 18h154l42 -18l16 -112q8 -84 -44 -88h-183z" />
    <glyph glyph-name="at" unicode="@" horiz-adv-x="998" 
d="M40 429q0 189 133.5 321t325.5 132t325.5 -132t133.5 -321t-133.5 -321t-325.5 -132t-325.5 132t-133.5 321zM179 429q0 -132 93 -224t227 -92t227 92t93 224t-93 224t-227 92t-227 -92t-93 -224zM273 550q2 49 48.5 93t133.5 43h63q31 -1 57 -55l15 55q27 2 68 -6.5
t66 -29.5q22 -29 16 -69q-10 -70 -36 -100t-51 -28q-113 36 -117 47l6 19q-13 15 -31 18h-26q-21 -5 -21 -38q-7 -9 104.5 -50t127.5 -60q32 -29 29 -83q-2 -49 -48.5 -93t-133.5 -43h-63q-31 1 -57 55l-15 -55q-27 -2 -68 6.5t-66 29.5q-22 29 -16 69q10 70 36 100t51 28
q113 -36 117 -47l-6 -19q13 -15 31 -18h26q21 5 21 38q7 9 -105 53.5t-127 56.5q-32 29 -29 83z" />
    <glyph glyph-name="A" unicode="A" horiz-adv-x="640" 
d="M378 344h-116l-18 -126l42 -18l16 -112q8 -84 -44 -88h-181q-51 4 -43 88l16 112l42 18l16 116q-4 50 -42 92q45 17 64 64l13 95l-44 19l-15 110q-8 84 44 88h384q52 -4 44 -88l-15 -110l-44 -19l13 -95q19 -47 64 -64q-38 -42 -42 -92l16 -116l42 -18l16 -112
q8 -84 -43 -88h-181q-52 4 -44 88l16 112l42 18zM317 594l-21 -10l-18 -122h84l-18 122l-20 10h-7z" />
    <glyph glyph-name="B" unicode="B" horiz-adv-x="580" 
d="M88 0q-52 4 -44 88l16 112l42 18v96q-6 52 -54 88q48 36 54 88v96l-42 18l-16 110q-8 84 44 88h283q97 -3 135 -66.5t36 -129.5v-77q-8 -97 -68 -127q60 -30 68 -128v-77q2 -65 -36 -129.5t-134 -67.5h-284zM354 198q41 10 46 88q-9 46 -44 52h-106v-140h104zM354 606
h-104v-140h106q35 6 44 52q-5 78 -46 88z" />
    <glyph glyph-name="C" unicode="C" horiz-adv-x="590" 
d="M253 0q-75 3 -128.5 62t-50.5 252q-6 52 -54 88q48 36 54 88q-3 191 50.5 250t135.5 62h68q32 -1 45 -47q2 43 41 47h88q52 -4 44 -88l-26 -208q-4 -24 -18 -26h-110q-14 2 -18 26q-1 25 -11 58.5t-37 39.5h-56q-27 -6 -37.5 -39.5t-10.5 -74.5q9 -51 52 -88
q-43 -37 -52 -88q0 -41 10.5 -74.5t37.5 -39.5h56q27 6 37.5 39t10.5 57q4 24 18 26h112q14 -2 18 -25v-25q0 -153 -52 -211t-134 -61h-83z" />
    <glyph glyph-name="D" unicode="D" horiz-adv-x="624" 
d="M87 0q-51 4 -44 88l17 112l42 18v96q-6 52 -54 88q48 36 54 88v96l-43 18l-15 110q-8 84 44 88l276 2q82 -3 135.5 -62t50.5 -252q6 -52 54 -88q-48 -36 -54 -88q3 -193 -50.5 -252t-135.5 -62h-277zM250 606v-115q6 -53 52 -89q-46 -36 -52 -88v-116h104q27 6 37.5 40.5
t10.5 75.5q-6 52 -52 88q46 36 52 89q0 40 -10.5 74.5t-37.5 40.5h-104z" />
    <glyph glyph-name="E" unicode="E" horiz-adv-x="662" 
d="M87 0q-51 4 -44 88l17 112l42 18v96q-6 52 -54 88q48 34 54 86v98l-43 18l-15 110q-8 84 44 88h312q32 -1 45 -47q2 43 41 47h88q52 -4 44 -88l-26 -208q-4 -24 -18 -26h-110q-14 2 -18 26q-1 25 -11 58.5t-37 39.5h-142v-144h142q24 -4 26 -18v-80q-2 -14 -26 -18h-142
v-146h142q27 6 37 39.5t11 58.5q4 24 18 26h110q14 -2 18 -26l26 -208q8 -84 -44 -88h-88q-39 4 -41 47q-13 -46 -45 -47h-313z" />
    <glyph glyph-name="F" unicode="F" horiz-adv-x="658" 
d="M87 0q-51 4 -44 88l17 112l42 18v96q-6 52 -54 88q48 34 54 86v98l-43 18l-15 110q-8 84 44 88h312q32 -1 45 -47q2 43 41 47h88q52 -4 44 -88l-26 -208q-4 -24 -18 -26h-110q-14 2 -18 26q-1 25 -11 58.5t-37 39.5h-142v-144h142q24 -4 26 -18v-80q-2 -14 -26 -18h-142
v-126l42 -18l16 -112q8 -84 -44 -88h-183z" />
    <glyph glyph-name="G" unicode="G" horiz-adv-x="592" 
d="M253 0q-75 3 -128.5 62t-50.5 252q-6 52 -54 88q48 36 54 88q-3 191 50.5 250t135.5 62h68q32 -1 45 -47q2 43 41 47h88q52 -4 44 -88l-26 -208q-4 -24 -18 -26h-110q-14 2 -18 26q-1 25 -11 58.5t-37 39.5h-56q-27 -6 -37.5 -39.5t-10.5 -74.5q9 -51 52 -88
q-43 -37 -52 -88q0 -41 10.5 -74.5t37.5 -39.5h56q29 4 39 37.5t11 58.5v48h-42q-24 4 -26 18v80q2 14 26 18h122q43 -1 56 -78l36 -294q8 -84 -44 -88h-88q-39 4 -41 47q-12 -42 -45 -47h-77z" />
    <glyph glyph-name="H" unicode="H" horiz-adv-x="662" 
d="M87 0q-51 4 -44 88l17 112l42 18v96q-6 52 -54 88q48 34 54 86v98l-43 18l-15 110q-8 84 44 88h182q52 -4 44 -88l-15 -110l-43 -18v-126h150v126l-43 18l-15 110q-8 84 44 88h182q52 -4 44 -88l-15 -110l-43 -18v-98q6 -52 54 -86q-48 -36 -54 -88v-96l42 -18l17 -112
q7 -84 -44 -88h-183q-52 4 -44 88l16 112l42 18v126h-150v-126l42 -18l16 -112q8 -84 -44 -88h-183z" />
    <glyph glyph-name="I" unicode="I" horiz-adv-x="358" 
d="M87 0q-51 4 -44 88l17 112l42 18v96q-6 52 -54 88q48 34 54 86v98l-43 18l-15 110q-8 84 44 88h182q52 -4 44 -88l-15 -110l-43 -18v-98q6 -52 54 -86q-48 -36 -54 -88v-96l42 -18l16 -112q8 -84 -44 -88h-183z" />
    <glyph glyph-name="J" unicode="J" horiz-adv-x="590" 
d="M305 0h-83q-82 3 -134 61t-52 211v25q4 23 18 25h112q14 -2 18 -26q0 -24 10.5 -57t37.5 -39h56q27 6 37.5 39.5t10.5 74.5q-9 51 -52 88q43 37 50 90v94l-43 18l-15 110q-8 84 44 88h182q52 -4 44 -88l-15 -110l-43 -18v-96q2 -52 50 -88q-48 -36 -54 -88
q3 -193 -50.5 -252t-128.5 -62z" />
    <glyph glyph-name="K" unicode="K" horiz-adv-x="662" 
d="M87 0q-51 4 -44 88l17 112l42 18v96q-6 52 -54 88q48 34 54 86v98l-43 18l-15 110q-8 84 44 88h182q52 -4 44 -88l-15 -110l-43 -18v-153l150 153l-44 18l-14 110q-8 84 44 88h182q52 -4 44 -88l-16 -110l-42 -18l-164 -170l26 -28q37 -29 102 -26q-11 -53 6 -102l30 -42
l42 -18l16 -112q8 -84 -44 -88h-182q-52 4 -44 88l16 112l42 18l-92 114l-58 -58v-56l42 -18l16 -112q8 -84 -44 -88h-183z" />
    <glyph glyph-name="L" unicode="L" horiz-adv-x="662" 
d="M398 198q27 6 37 39.5t11 58.5q4 24 18 26h110q14 -2 18 -26l26 -208q8 -84 -44 -88h-88q-39 4 -41 47q-13 -46 -45 -47h-313q-51 4 -44 88l17 112l42 18v96q-6 52 -54 88q48 34 54 86v98l-43 18l-15 110q-8 84 44 88h182q52 -4 44 -88l-15 -110l-43 -18v-98
q6 -52 54 -86q-48 -36 -54 -88v-116h142z" />
    <glyph glyph-name="M" unicode="M" horiz-adv-x="966" 
d="M232 802q60 2 88 -48l163 -402l163 402q28 50 88 48h144q52 -4 44 -88l-15 -110l-43 -18v-98q6 -52 54 -86q-48 -36 -54 -88v-96l42 -18l17 -112q7 -84 -44 -88h-183q-52 4 -44 88l16 112l42 18v132q-13 39 -46 52q33 12 46 54v124l-150 -362l41 -18l19 -112
q6 -84 -44 -88h-186q-50 4 -44 88l19 112l41 18l-150 362v-124q13 -42 46 -54q-33 -13 -46 -52v-132l42 -18l16 -112q8 -84 -44 -88h-183q-51 4 -44 88l17 112l42 18v96q-6 52 -54 88q48 34 54 86v98l-43 18l-15 110q-8 84 44 88h144z" />
    <glyph glyph-name="N" unicode="N" horiz-adv-x="660" 
d="M88 0q-52 4 -45 88l17 112l42 16v98q-6 52 -54 88q48 34 54 86v98l-42 18l-16 110q-8 84 44 88h136q39 -3 54 -38l128 -370v192l-42 16l-16 112q-8 84 44 88h180q52 -4 45 -88l-17 -112l-42 -16v-98q6 -52 54 -88q-48 -34 -54 -86v-98l42 -18l16 -110q8 -84 -44 -88h-136
q-39 3 -54 38l-128 370v-192l42 -16l16 -112q8 -84 -44 -88h-180z" />
    <glyph glyph-name="O" unicode="O" horiz-adv-x="596" 
d="M260 0q-82 3 -135.5 62t-50.5 252q-6 52 -54 88q48 36 54 88q-3 191 50.5 250t135.5 62h76q82 -3 135.5 -62t50.5 -250q6 -52 54 -88q-48 -36 -54 -88q3 -193 -50.5 -252t-135.5 -62h-76zM270 604q-27 -6 -37.5 -39.5t-10.5 -73.5q6 -53 52 -89q-46 -36 -52 -88
q0 -41 10.5 -75.5t37.5 -40.5h56q27 6 37.5 40.5t10.5 75.5q-6 52 -52 88q46 36 52 89q0 40 -10.5 73.5t-37.5 39.5h-56z" />
    <glyph glyph-name="P" unicode="P" horiz-adv-x="580" 
d="M354 606h-104v-140h106q35 6 44 52q-5 78 -46 88zM87 0q-51 4 -44 88l17 112l42 18v96q-6 52 -54 88q48 36 54 88v96l-42 18l-16 110q-8 84 44 88h283q97 -3 135 -66.5t36 -129.5v-72q2 -66 -36 -129.5t-150 -66.5h-106v-120l42 -18l16 -112q8 -84 -44 -88h-176h-1z" />
    <glyph glyph-name="Q" unicode="Q" horiz-adv-x="596" 
d="M270 604q-27 -6 -37.5 -39.5t-10.5 -73.5q6 -53 52 -89q-46 -36 -52 -88q0 -41 5.5 -66.5t15.5 -31.5q4 32 17 34h76q13 -2 18 -34q9 6 14.5 31.5t5.5 66.5q-6 52 -52 88q46 36 52 89q0 40 -10.5 73.5t-37.5 39.5h-56zM125 62q-54 59 -51 252q-6 52 -54 88q48 36 54 88
q-3 191 50.5 250t135.5 62h76q82 -3 135.5 -62t50.5 -250q6 -52 54 -88q-48 -36 -54 -88q3 -193 -50 -252q-47 -51 -114 -60v-80q-4 -24 -18 -26h-80q-14 2 -18 26v79q-70 9 -117 61z" />
    <glyph glyph-name="R" unicode="R" horiz-adv-x="656" 
d="M354 606h-100v-140h102q35 6 44 52q-5 78 -46 88zM87 0q-51 4 -44 88l17 112l42 18v96q-6 52 -54 88q48 36 54 88v96l-42 18l-16 110q-8 84 44 88h283q97 -3 135 -66.5t36 -129.5v-72q2 -66 -27 -114.5t-71 -65.5q37 -29 102 -26q-11 -53 6 -102l6 -8l42 -18l16 -112
q8 -84 -44 -88h-182q-52 4 -44 88l16 112l42 18l-96 120h-54v-120l42 -18l16 -112q8 -84 -44 -88h-181z" />
    <glyph glyph-name="S" unicode="S" horiz-adv-x="564" 
d="M88 440q-43 27 -46 94q3 147 56.5 206t135.5 62h68q32 -1 45 -47q2 43 41 47h88q52 -4 44 -88l-26 -208q-4 -24 -18 -26h-110q-14 2 -18 26q-1 25 -11 58.5t-37 39.5h-56q-27 -6 -38 -21t-10 -45q1 -21 24 -32l26 -16q38 -14 96 0q-1 -35 30 -66l104 -62q43 -27 46 -94
q-3 -147 -56.5 -206t-135.5 -62h-68q-32 1 -45 47q-2 -43 -41 -47h-88q-52 4 -44 88l26 208q4 24 18 26h110q14 -2 18 -26q1 -25 11 -58.5t37 -39.5h56q27 6 38 21t10 45q-1 21 -24 32l-26 16q-38 14 -96 0q1 35 -30 66z" />
    <glyph glyph-name="T" unicode="T" horiz-adv-x="576" 
d="M195 0q-51 4 -44 88l17 112l42 18v96q-6 52 -54 88q48 34 54 86v112q-17 -10 -26 -39.5t-10 -54.5q-4 -24 -18 -26h-68q-14 2 -18 26l-26 208q-8 84 44 88h46q39 -4 41 -47q13 46 45 47h136q32 -1 45 -47q2 43 41 47h46q52 -4 44 -88l-26 -208q-4 -24 -18 -26h-68
q-14 2 -18 26q-1 25 -10 55t-28 40v-113q6 -52 54 -86q-48 -36 -54 -88v-96l42 -18l16 -112q8 -84 -44 -88h-183z" />
    <glyph glyph-name="U" unicode="U" horiz-adv-x="652" 
d="M308 402q-46 -36 -52 -88q0 -41 10.5 -75.5t37.5 -40.5h44q27 6 37.5 40.5t10.5 75.5q-6 52 -52 88q46 36 52 89v95l-43 18l-15 110q-8 84 44 88h182q52 -4 44 -88l-15 -110l-43 -18v-96q6 -52 54 -88q-48 -36 -54 -88q3 -193 -50.5 -252t-135.5 -62h-76q-82 3 -135.5 62
t-50.5 252q-6 52 -54 88q48 36 54 88v96l-43 18l-15 110q-8 84 44 88h182q52 -4 44 -88l-15 -110l-43 -18v-95q6 -53 52 -89z" />
    <glyph glyph-name="V" unicode="V" horiz-adv-x="642" 
d="M230 0q-52 4 -45 88l17 112l24 12l-34 106q-15 45 -70 58q32 57 22 104l-30 92l-64 32l-16 110q-8 84 44 88h182q52 -4 44 -88l-14 -110l-44 -18l75 -231l75 231l-44 18l-14 110q-8 84 44 88h182q52 -4 44 -88l-16 -110l-64 -32l-30 -92q-10 -47 22 -104q-55 -13 -70 -58
l-34 -106l24 -12l17 -112q7 -84 -45 -88h-182z" />
    <glyph glyph-name="W" unicode="W" horiz-adv-x="934" 
d="M224 0q-52 4 -45 88l17 112l24 12l-34 106q-15 45 -70 58q32 57 22 104l-30 92l-64 32l-16 110q-8 84 44 88h182q52 -4 44 -88l-14 -110l-44 -18l75 -231l74 228l-43 21l-14 110q-8 84 44 88h182q52 -4 44 -88l-14 -110l-43 -21l74 -228l75 231l-44 18l-14 110
q-8 84 44 88h182q52 -4 44 -88l-16 -110l-64 -32l-30 -92q-10 -47 22 -104q-55 -13 -70 -58l-34 -106l24 -12l17 -112q7 -84 -45 -88h-182q-52 4 -45 88l17 112l24 12l-57 189l-57 -189l24 -12l17 -112q7 -84 -45 -88h-182z" />
    <glyph glyph-name="X" unicode="X" horiz-adv-x="660" 
d="M86 0q-50 4 -44 88l18 112l42 18l90 112q27 31 10 42l-50 30l50 30q17 11 -10 42l-90 112l-42 18l-18 112q-6 84 44 88h184q52 -4 44 -88l-16 -112l-38 -16l70 -91l70 91l-38 16l-16 112q-8 84 44 88h184q50 -4 44 -88l-18 -112l-42 -18l-90 -112q-27 -31 -10 -42l50 -30
l-50 -30q-17 -11 10 -42l90 -112l42 -18l18 -112q6 -84 -44 -88h-184q-52 4 -44 88l16 112l38 16l-70 86l-70 -86l38 -16l16 -112q8 -84 -44 -88h-184z" />
    <glyph glyph-name="Y" unicode="Y" horiz-adv-x="640" 
d="M229 0q-51 4 -44 88l17 112l42 18v16q-6 52 -54 88q43 31 52 76l-150 188l-42 18l-18 112q-6 84 44 88h184q52 -4 44 -88l-16 -112l-38 -16l70 -91l70 91l-38 16l-16 112q-8 84 44 88h184q50 -4 44 -88l-18 -112l-42 -18l-149 -186q9 -47 53 -78q-48 -36 -54 -88v-16
l42 -18l16 -112q8 -84 -44 -88h-183z" />
    <glyph glyph-name="Z" unicode="Z" horiz-adv-x="624" 
d="M214 480q69 4 102 48l54 76h-106q-27 -6 -37 -39.5t-11 -58.5q-4 -24 -18 -26h-110q-14 2 -18 26l-26 208q-8 84 44 88h88q39 -4 41 -47q13 46 45 47h268q57 0 50 -87v-55q-5 -36 -26 -62l-123 -161q-24 -57 -21 -115q-69 -4 -102 -48l-54 -76h106q27 6 37 39.5t11 58.5
q4 24 18 26h110q14 -2 18 -26l26 -208q8 -84 -44 -88h-88q-39 4 -41 47q-13 -46 -45 -47h-268q-57 0 -50 87v55q5 36 26 62l122 161q25 57 22 115z" />
    <glyph glyph-name="bracketleft" unicode="[" 
 />
    <glyph glyph-name="backslash" unicode="\" 
 />
    <glyph glyph-name="bracketright" unicode="]" 
 />
    <glyph glyph-name="asciicircum" unicode="^" 
 />
    <glyph glyph-name="underscore" unicode="_" horiz-adv-x="410" 
d="M340 144q24 -4 26 -18v-108q-2 -14 -26 -18h-270q-24 4 -26 18v108q2 14 26 18h270z" />
    <glyph glyph-name="grave" unicode="`" 
 />
    <glyph glyph-name="a" unicode="a" horiz-adv-x="640" 
d="M378 344h-116l-18 -126l42 -18l16 -112q8 -84 -44 -88h-181q-51 4 -43 88l16 112l42 18l16 116q-4 50 -42 92q45 17 64 64l13 95l-44 19l-15 110q-8 84 44 88h384q52 -4 44 -88l-15 -110l-44 -19l13 -95q19 -47 64 -64q-38 -42 -42 -92l16 -116l42 -18l16 -112
q8 -84 -43 -88h-181q-52 4 -44 88l16 112l42 18zM317 594l-21 -10l-18 -122h84l-18 122l-20 10h-7z" />
    <glyph glyph-name="b" unicode="b" horiz-adv-x="580" 
d="M88 0q-52 4 -44 88l16 112l42 18v96q-6 52 -54 88q48 36 54 88v96l-42 18l-16 110q-8 84 44 88h283q97 -3 135 -66.5t36 -129.5v-77q-8 -97 -68 -127q60 -30 68 -128v-77q2 -65 -36 -129.5t-134 -67.5h-284zM354 198q41 10 46 88q-9 46 -44 52h-106v-140h104zM354 606
h-104v-140h106q35 6 44 52q-5 78 -46 88z" />
    <glyph glyph-name="c" unicode="c" horiz-adv-x="590" 
d="M253 0q-75 3 -128.5 62t-50.5 252q-6 52 -54 88q48 36 54 88q-3 191 50.5 250t135.5 62h68q32 -1 45 -47q2 43 41 47h88q52 -4 44 -88l-26 -208q-4 -24 -18 -26h-110q-14 2 -18 26q-1 25 -11 58.5t-37 39.5h-56q-27 -6 -37.5 -39.5t-10.5 -74.5q9 -51 52 -88
q-43 -37 -52 -88q0 -41 10.5 -74.5t37.5 -39.5h56q27 6 37.5 39t10.5 57q4 24 18 26h112q14 -2 18 -25v-25q0 -153 -52 -211t-134 -61h-83z" />
    <glyph glyph-name="d" unicode="d" horiz-adv-x="624" 
d="M87 0q-51 4 -44 88l17 112l42 18v96q-6 52 -54 88q48 36 54 88v96l-43 18l-15 110q-8 84 44 88l276 2q82 -3 135.5 -62t50.5 -252q6 -52 54 -88q-48 -36 -54 -88q3 -193 -50.5 -252t-135.5 -62h-277zM250 606v-115q6 -53 52 -89q-46 -36 -52 -88v-116h104q27 6 37.5 40.5
t10.5 75.5q-6 52 -52 88q46 36 52 89q0 40 -10.5 74.5t-37.5 40.5h-104z" />
    <glyph glyph-name="e" unicode="e" horiz-adv-x="662" 
d="M87 0q-51 4 -44 88l17 112l42 18v96q-6 52 -54 88q48 34 54 86v98l-43 18l-15 110q-8 84 44 88h312q32 -1 45 -47q2 43 41 47h88q52 -4 44 -88l-26 -208q-4 -24 -18 -26h-110q-14 2 -18 26q-1 25 -11 58.5t-37 39.5h-142v-144h142q24 -4 26 -18v-80q-2 -14 -26 -18h-142
v-146h142q27 6 37 39.5t11 58.5q4 24 18 26h110q14 -2 18 -26l26 -208q8 -84 -44 -88h-88q-39 4 -41 47q-13 -46 -45 -47h-313z" />
    <glyph glyph-name="f" unicode="f" horiz-adv-x="658" 
d="M87 0q-51 4 -44 88l17 112l42 18v96q-6 52 -54 88q48 34 54 86v98l-43 18l-15 110q-8 84 44 88h312q32 -1 45 -47q2 43 41 47h88q52 -4 44 -88l-26 -208q-4 -24 -18 -26h-110q-14 2 -18 26q-1 25 -11 58.5t-37 39.5h-142v-144h142q24 -4 26 -18v-80q-2 -14 -26 -18h-142
v-126l42 -18l16 -112q8 -84 -44 -88h-183z" />
    <glyph glyph-name="g" unicode="g" horiz-adv-x="592" 
d="M253 0q-75 3 -128.5 62t-50.5 252q-6 52 -54 88q48 36 54 88q-3 191 50.5 250t135.5 62h68q32 -1 45 -47q2 43 41 47h88q52 -4 44 -88l-26 -208q-4 -24 -18 -26h-110q-14 2 -18 26q-1 25 -11 58.5t-37 39.5h-56q-27 -6 -37.5 -39.5t-10.5 -74.5q9 -51 52 -88
q-43 -37 -52 -88q0 -41 10.5 -74.5t37.5 -39.5h56q29 4 39 37.5t11 58.5v48h-42q-24 4 -26 18v80q2 14 26 18h122q43 -1 56 -78l36 -294q8 -84 -44 -88h-88q-39 4 -41 47q-12 -42 -45 -47h-77z" />
    <glyph glyph-name="h" unicode="h" horiz-adv-x="662" 
d="M87 0q-51 4 -44 88l17 112l42 18v96q-6 52 -54 88q48 34 54 86v98l-43 18l-15 110q-8 84 44 88h182q52 -4 44 -88l-15 -110l-43 -18v-126h150v126l-43 18l-15 110q-8 84 44 88h182q52 -4 44 -88l-15 -110l-43 -18v-98q6 -52 54 -86q-48 -36 -54 -88v-96l42 -18l17 -112
q7 -84 -44 -88h-183q-52 4 -44 88l16 112l42 18v126h-150v-126l42 -18l16 -112q8 -84 -44 -88h-183z" />
    <glyph glyph-name="i" unicode="i" horiz-adv-x="358" 
d="M87 0q-51 4 -44 88l17 112l42 18v96q-6 52 -54 88q48 34 54 86v98l-43 18l-15 110q-8 84 44 88h182q52 -4 44 -88l-15 -110l-43 -18v-98q6 -52 54 -86q-48 -36 -54 -88v-96l42 -18l16 -112q8 -84 -44 -88h-183z" />
    <glyph glyph-name="j" unicode="j" horiz-adv-x="590" 
d="M305 0h-83q-82 3 -134 61t-52 211v25q4 23 18 25h112q14 -2 18 -26q0 -24 10.5 -57t37.5 -39h56q27 6 37.5 39.5t10.5 74.5q-9 51 -52 88q43 37 50 90v94l-43 18l-15 110q-8 84 44 88h182q52 -4 44 -88l-15 -110l-43 -18v-96q2 -52 50 -88q-48 -36 -54 -88
q3 -193 -50.5 -252t-128.5 -62z" />
    <glyph glyph-name="k" unicode="k" horiz-adv-x="662" 
d="M87 0q-51 4 -44 88l17 112l42 18v96q-6 52 -54 88q48 34 54 86v98l-43 18l-15 110q-8 84 44 88h182q52 -4 44 -88l-15 -110l-43 -18v-153l150 153l-44 18l-14 110q-8 84 44 88h182q52 -4 44 -88l-16 -110l-42 -18l-164 -170l26 -28q37 -29 102 -26q-11 -53 6 -102l30 -42
l42 -18l16 -112q8 -84 -44 -88h-182q-52 4 -44 88l16 112l42 18l-92 114l-58 -58v-56l42 -18l16 -112q8 -84 -44 -88h-183z" />
    <glyph glyph-name="l" unicode="l" horiz-adv-x="662" 
d="M398 198q27 6 37 39.5t11 58.5q4 24 18 26h110q14 -2 18 -26l26 -208q8 -84 -44 -88h-88q-39 4 -41 47q-13 -46 -45 -47h-313q-51 4 -44 88l17 112l42 18v96q-6 52 -54 88q48 34 54 86v98l-43 18l-15 110q-8 84 44 88h182q52 -4 44 -88l-15 -110l-43 -18v-98
q6 -52 54 -86q-48 -36 -54 -88v-116h142z" />
    <glyph glyph-name="m" unicode="m" horiz-adv-x="966" 
d="M232 802q60 2 88 -48l163 -402l163 402q28 50 88 48h144q52 -4 44 -88l-15 -110l-43 -18v-98q6 -52 54 -86q-48 -36 -54 -88v-96l42 -18l17 -112q7 -84 -44 -88h-183q-52 4 -44 88l16 112l42 18v132q-13 39 -46 52q33 12 46 54v124l-150 -362l41 -18l19 -112
q6 -84 -44 -88h-186q-50 4 -44 88l19 112l41 18l-150 362v-124q13 -42 46 -54q-33 -13 -46 -52v-132l42 -18l16 -112q8 -84 -44 -88h-183q-51 4 -44 88l17 112l42 18v96q-6 52 -54 88q48 34 54 86v98l-43 18l-15 110q-8 84 44 88h144z" />
    <glyph glyph-name="n" unicode="n" horiz-adv-x="660" 
d="M88 0q-52 4 -45 88l17 112l42 16v98q-6 52 -54 88q48 34 54 86v98l-42 18l-16 110q-8 84 44 88h143v1v-1q26 -3 40 -22l135 -386v192l-42 16l-16 112q-8 84 44 88h180q52 -4 45 -88l-17 -112l-42 -16v-98q6 -52 54 -88q-48 -34 -54 -86v-98l42 -18l16 -110q8 -84 -44 -88
h-143q-26 3 -40 22l-135 386v-192l42 -16l16 -112q8 -84 -44 -88h-180z" />
    <glyph glyph-name="o" unicode="o" horiz-adv-x="596" 
d="M260 0q-82 3 -135.5 62t-50.5 252q-6 52 -54 88q48 36 54 88q-3 191 50.5 250t135.5 62h76q82 -3 135.5 -62t50.5 -250q6 -52 54 -88q-48 -36 -54 -88q3 -193 -50.5 -252t-135.5 -62h-76zM270 604q-27 -6 -37.5 -39.5t-10.5 -73.5q6 -53 52 -89q-46 -36 -52 -88
q0 -41 10.5 -75.5t37.5 -40.5h56q27 6 37.5 40.5t10.5 75.5q-6 52 -52 88q46 36 52 89q0 40 -10.5 73.5t-37.5 39.5h-56z" />
    <glyph glyph-name="p" unicode="p" horiz-adv-x="580" 
d="M354 606h-104v-140h106q35 6 44 52q-5 78 -46 88zM87 0q-51 4 -44 88l17 112l42 18v96q-6 52 -54 88q48 36 54 88v96l-42 18l-16 110q-8 84 44 88h283q97 -3 135 -66.5t36 -129.5v-72q2 -66 -36 -129.5t-150 -66.5h-106v-120l42 -18l16 -112q8 -84 -44 -88h-176h-1z" />
    <glyph glyph-name="q" unicode="q" horiz-adv-x="596" 
d="M270 604q-27 -6 -37.5 -39.5t-10.5 -73.5q6 -53 52 -89q-46 -36 -52 -88q0 -41 5.5 -66.5t15.5 -31.5q4 32 17 34h76q13 -2 18 -34q9 6 14.5 31.5t5.5 66.5q-6 52 -52 88q46 36 52 89q0 40 -10.5 73.5t-37.5 39.5h-56zM125 62q-54 59 -51 252q-6 52 -54 88q48 36 54 88
q-3 191 50.5 250t135.5 62h76q82 -3 135.5 -62t50.5 -250q6 -52 54 -88q-48 -36 -54 -88q3 -193 -50 -252q-47 -51 -114 -60v-80q-4 -24 -18 -26h-80q-14 2 -18 26v79q-70 9 -117 61z" />
    <glyph glyph-name="r" unicode="r" horiz-adv-x="656" 
d="M354 606h-100v-140h102q35 6 44 52q-5 78 -46 88zM87 0q-51 4 -44 88l17 112l42 18v96q-6 52 -54 88q48 36 54 88v96l-42 18l-16 110q-8 84 44 88h283q97 -3 135 -66.5t36 -129.5v-72q2 -66 -27 -114.5t-71 -65.5q37 -29 102 -26q-11 -53 6 -102l6 -8l42 -18l16 -112
q8 -84 -44 -88h-182q-52 4 -44 88l16 112l42 18l-96 120h-54v-120l42 -18l16 -112q8 -84 -44 -88h-181z" />
    <glyph glyph-name="s" unicode="s" horiz-adv-x="564" 
d="M88 440q-43 27 -46 94q3 147 56.5 206t135.5 62h68q32 -1 45 -47q2 43 41 47h88q52 -4 44 -88l-26 -208q-4 -24 -18 -26h-110q-14 2 -18 26q-1 25 -11 58.5t-37 39.5h-56q-27 -6 -38 -21t-10 -45q1 -21 24 -32l26 -16q38 -14 96 0q-1 -35 30 -66l104 -62q43 -27 46 -94
q-3 -147 -56.5 -206t-135.5 -62h-68q-32 1 -45 47q-2 -43 -41 -47h-88q-52 4 -44 88l26 208q4 24 18 26h110q14 -2 18 -26q1 -25 11 -58.5t37 -39.5h56q27 6 38 21t10 45q-1 21 -24 32l-26 16q-38 14 -96 0q1 35 -30 66z" />
    <glyph glyph-name="t" unicode="t" horiz-adv-x="576" 
d="M195 0q-51 4 -44 88l17 112l42 18v96q-6 52 -54 88q48 34 54 86v112q-17 -10 -26 -39.5t-10 -54.5q-4 -24 -18 -26h-68q-14 2 -18 26l-26 208q-8 84 44 88h46q39 -4 41 -47q13 46 45 47h136q32 -1 45 -47q2 43 41 47h46q52 -4 44 -88l-26 -208q-4 -24 -18 -26h-68
q-14 2 -18 26q-1 25 -10 55t-28 40v-113q6 -52 54 -86q-48 -36 -54 -88v-96l42 -18l16 -112q8 -84 -44 -88h-183z" />
    <glyph glyph-name="u" unicode="u" horiz-adv-x="652" 
d="M308 402q-46 -36 -52 -88q0 -41 10.5 -75.5t37.5 -40.5h44q27 6 37.5 40.5t10.5 75.5q-6 52 -52 88q46 36 52 89v95l-43 18l-15 110q-8 84 44 88h182q52 -4 44 -88l-15 -110l-43 -18v-96q6 -52 54 -88q-48 -36 -54 -88q3 -193 -50.5 -252t-135.5 -62h-76q-82 3 -135.5 62
t-50.5 252q-6 52 -54 88q48 36 54 88v96l-43 18l-15 110q-8 84 44 88h182q52 -4 44 -88l-15 -110l-43 -18v-95q6 -53 52 -89z" />
    <glyph glyph-name="v" unicode="v" horiz-adv-x="642" 
d="M230 0q-52 4 -45 88l17 112l24 12l-34 106q-15 45 -70 58q32 57 22 104l-30 92l-64 32l-16 110q-8 84 44 88h182q52 -4 44 -88l-14 -110l-44 -18l75 -231l75 231l-44 18l-14 110q-8 84 44 88h182q52 -4 44 -88l-16 -110l-64 -32l-30 -92q-10 -47 22 -104q-55 -13 -70 -58
l-34 -106l24 -12l17 -112q7 -84 -45 -88h-182z" />
    <glyph glyph-name="w" unicode="w" horiz-adv-x="934" 
d="M224 0q-52 4 -45 88l17 112l24 12l-34 106q-15 45 -70 58q32 57 22 104l-30 92l-64 32l-16 110q-8 84 44 88h182q52 -4 44 -88l-14 -110l-44 -18l75 -231l74 228l-43 21l-14 110q-8 84 44 88h182q52 -4 44 -88l-14 -110l-43 -21l74 -228l75 231l-44 18l-14 110
q-8 84 44 88h182q52 -4 44 -88l-16 -110l-64 -32l-30 -92q-10 -47 22 -104q-55 -13 -70 -58l-34 -106l24 -12l17 -112q7 -84 -45 -88h-182q-52 4 -45 88l17 112l24 12l-57 189l-57 -189l24 -12l17 -112q7 -84 -45 -88h-182z" />
    <glyph glyph-name="x" unicode="x" horiz-adv-x="660" 
d="M86 0q-50 4 -44 88l18 112l42 18l90 112q27 31 10 42l-50 30l50 30q17 11 -10 42l-90 112l-42 18l-18 112q-6 84 44 88h184q52 -4 44 -88l-16 -112l-38 -16l70 -91l70 91l-38 16l-16 112q-8 84 44 88h184q50 -4 44 -88l-18 -112l-42 -18l-90 -112q-27 -31 -10 -42l50 -30
l-50 -30q-17 -11 10 -42l90 -112l42 -18l18 -112q6 -84 -44 -88h-184q-52 4 -44 88l16 112l38 16l-70 86l-70 -86l38 -16l16 -112q8 -84 -44 -88h-184z" />
    <glyph glyph-name="y" unicode="y" horiz-adv-x="632" 
d="M225 0q-51 4 -44 88l17 112l42 18v16q-6 52 -54 88q43 31 52 76l-150 188l-42 18l-18 112q-6 84 44 88h184q52 -4 44 -88l-16 -112l-38 -16l70 -91l70 91l-38 16l-16 112q-8 84 44 88h184q50 -4 44 -88l-18 -112l-42 -18l-149 -186q9 -47 53 -78q-48 -36 -54 -88v-16
l42 -18l16 -112q8 -84 -44 -88h-183z" />
    <glyph glyph-name="z" unicode="z" horiz-adv-x="624" 
d="M214 480q69 4 102 48l54 76h-106q-27 -6 -37 -39.5t-11 -58.5q-4 -24 -18 -26h-110q-14 2 -18 26l-26 208q-8 84 44 88h88q39 -4 41 -47q13 46 45 47h268q57 0 50 -87v-55q-5 -36 -26 -62l-123 -161q-24 -57 -21 -115q-69 -4 -102 -48l-54 -76h106q27 6 37 39.5t11 58.5
q4 24 18 26h110q14 -2 18 -26l26 -208q8 -84 -44 -88h-88q-39 4 -41 47q-13 -46 -45 -47h-268q-57 0 -50 87v55q5 36 26 62l122 161q25 57 22 115z" />
    <glyph glyph-name="braceleft" unicode="{" 
 />
    <glyph glyph-name="bar" unicode="|" 
 />
    <glyph glyph-name="braceright" unicode="}" 
 />
    <glyph glyph-name="asciitilde" unicode="~" 
 />
    <glyph glyph-name="uni00A0" unicode="&#xa0;" 
 />
    <glyph glyph-name="exclamdown" unicode="&#xa1;" 
 />
    <glyph glyph-name="cent" unicode="&#xa2;" 
 />
    <glyph glyph-name="sterling" unicode="&#xa3;" 
 />
    <glyph glyph-name="currency" unicode="&#xa4;" 
 />
    <glyph glyph-name="yen" unicode="&#xa5;" 
 />
    <glyph glyph-name="brokenbar" unicode="&#xa6;" 
 />
    <glyph glyph-name="section" unicode="&#xa7;" 
 />
    <glyph glyph-name="dieresis" unicode="&#xa8;" 
 />
    <glyph glyph-name="copyright" unicode="&#xa9;" 
 />
    <glyph glyph-name="ordfeminine" unicode="&#xaa;" 
 />
    <glyph glyph-name="guillemotleft" unicode="&#xab;" 
 />
    <glyph glyph-name="logicalnot" unicode="&#xac;" 
 />
    <glyph glyph-name="uni00AD" unicode="&#xad;" 
 />
    <glyph glyph-name="registered" unicode="&#xae;" 
 />
    <glyph glyph-name="macron" unicode="&#xaf;" 
 />
    <glyph glyph-name="degree" unicode="&#xb0;" 
 />
    <glyph glyph-name="plusminus" unicode="&#xb1;" 
 />
    <glyph glyph-name="uni00B2" unicode="&#xb2;" 
 />
    <glyph glyph-name="uni00B3" unicode="&#xb3;" 
 />
    <glyph glyph-name="acute" unicode="&#xb4;" 
 />
    <glyph glyph-name="mu" unicode="&#xb5;" 
 />
    <glyph glyph-name="paragraph" unicode="&#xb6;" 
 />
    <glyph glyph-name="periodcentered" unicode="&#xb7;" 
 />
    <glyph glyph-name="cedilla" unicode="&#xb8;" 
 />
    <glyph glyph-name="uni00B9" unicode="&#xb9;" 
 />
    <glyph glyph-name="ordmasculine" unicode="&#xba;" 
 />
    <glyph glyph-name="guillemotright" unicode="&#xbb;" 
 />
    <glyph glyph-name="onequarter" unicode="&#xbc;" 
 />
    <glyph glyph-name="onehalf" unicode="&#xbd;" 
 />
    <glyph glyph-name="threequarters" unicode="&#xbe;" 
 />
    <glyph glyph-name="questiondown" unicode="&#xbf;" 
 />
    <glyph glyph-name="Agrave" unicode="&#xc0;" 
 />
    <glyph glyph-name="Aacute" unicode="&#xc1;" 
 />
    <glyph glyph-name="Acircumflex" unicode="&#xc2;" 
 />
    <glyph glyph-name="Atilde" unicode="&#xc3;" 
 />
    <glyph glyph-name="Adieresis" unicode="&#xc4;" 
 />
    <glyph glyph-name="Aring" unicode="&#xc5;" 
 />
    <glyph glyph-name="AE" unicode="&#xc6;" 
 />
    <glyph glyph-name="Ccedilla" unicode="&#xc7;" 
 />
    <glyph glyph-name="Egrave" unicode="&#xc8;" 
 />
    <glyph glyph-name="Eacute" unicode="&#xc9;" 
 />
    <glyph glyph-name="Ecircumflex" unicode="&#xca;" 
 />
    <glyph glyph-name="Edieresis" unicode="&#xcb;" 
 />
    <glyph glyph-name="Igrave" unicode="&#xcc;" 
 />
    <glyph glyph-name="Iacute" unicode="&#xcd;" 
 />
    <glyph glyph-name="Icircumflex" unicode="&#xce;" 
 />
    <glyph glyph-name="Idieresis" unicode="&#xcf;" 
 />
    <glyph glyph-name="Eth" unicode="&#xd0;" 
 />
    <glyph glyph-name="Ntilde" unicode="&#xd1;" 
 />
    <glyph glyph-name="Ograve" unicode="&#xd2;" 
 />
    <glyph glyph-name="Oacute" unicode="&#xd3;" 
 />
    <glyph glyph-name="Ocircumflex" unicode="&#xd4;" 
 />
    <glyph glyph-name="Otilde" unicode="&#xd5;" 
 />
    <glyph glyph-name="Odieresis" unicode="&#xd6;" 
 />
    <glyph glyph-name="multiply" unicode="&#xd7;" 
 />
    <glyph glyph-name="Oslash" unicode="&#xd8;" 
 />
    <glyph glyph-name="Ugrave" unicode="&#xd9;" 
 />
    <glyph glyph-name="Uacute" unicode="&#xda;" 
 />
    <glyph glyph-name="Ucircumflex" unicode="&#xdb;" 
 />
    <glyph glyph-name="Udieresis" unicode="&#xdc;" 
 />
    <glyph glyph-name="Yacute" unicode="&#xdd;" 
 />
    <glyph glyph-name="Thorn" unicode="&#xde;" 
 />
    <glyph glyph-name="germandbls" unicode="&#xdf;" 
 />
    <glyph glyph-name="agrave" unicode="&#xe0;" 
 />
    <glyph glyph-name="aacute" unicode="&#xe1;" 
 />
    <glyph glyph-name="acircumflex" unicode="&#xe2;" 
 />
    <glyph glyph-name="atilde" unicode="&#xe3;" 
 />
    <glyph glyph-name="adieresis" unicode="&#xe4;" 
 />
    <glyph glyph-name="aring" unicode="&#xe5;" 
 />
    <glyph glyph-name="ae" unicode="&#xe6;" 
 />
    <glyph glyph-name="ccedilla" unicode="&#xe7;" 
 />
    <glyph glyph-name="egrave" unicode="&#xe8;" 
 />
    <glyph glyph-name="eacute" unicode="&#xe9;" 
 />
    <glyph glyph-name="ecircumflex" unicode="&#xea;" 
 />
    <glyph glyph-name="edieresis" unicode="&#xeb;" 
 />
    <glyph glyph-name="igrave" unicode="&#xec;" 
 />
    <glyph glyph-name="iacute" unicode="&#xed;" 
 />
    <glyph glyph-name="icircumflex" unicode="&#xee;" 
 />
    <glyph glyph-name="idieresis" unicode="&#xef;" 
 />
    <glyph glyph-name="eth" unicode="&#xf0;" 
 />
    <glyph glyph-name="ntilde" unicode="&#xf1;" 
 />
    <glyph glyph-name="ograve" unicode="&#xf2;" 
 />
    <glyph glyph-name="oacute" unicode="&#xf3;" 
 />
    <glyph glyph-name="ocircumflex" unicode="&#xf4;" 
 />
    <glyph glyph-name="otilde" unicode="&#xf5;" 
 />
    <glyph glyph-name="odieresis" unicode="&#xf6;" 
 />
    <glyph glyph-name="divide" unicode="&#xf7;" 
 />
    <glyph glyph-name="oslash" unicode="&#xf8;" 
 />
    <glyph glyph-name="ugrave" unicode="&#xf9;" 
 />
    <glyph glyph-name="uacute" unicode="&#xfa;" 
 />
    <glyph glyph-name="ucircumflex" unicode="&#xfb;" 
 />
    <glyph glyph-name="udieresis" unicode="&#xfc;" 
 />
    <glyph glyph-name="yacute" unicode="&#xfd;" 
 />
    <glyph glyph-name="thorn" unicode="&#xfe;" 
 />
    <glyph glyph-name="ydieresis" unicode="&#xff;" 
 />
    <glyph glyph-name="OE" unicode="&#x152;" 
 />
    <glyph glyph-name="oe" unicode="&#x153;" 
 />
    <glyph glyph-name="Scaron" unicode="&#x160;" 
 />
    <glyph glyph-name="scaron" unicode="&#x161;" 
 />
    <glyph glyph-name="Ydieresis" unicode="&#x178;" 
 />
    <glyph glyph-name="Zcaron" unicode="&#x17d;" 
 />
    <glyph glyph-name="zcaron" unicode="&#x17e;" 
 />
    <glyph glyph-name="florin" unicode="&#x192;" 
 />
    <glyph glyph-name="circumflex" unicode="&#x2c6;" 
 />
    <glyph glyph-name="tilde" unicode="&#x2dc;" 
 />
    <glyph glyph-name="endash" unicode="&#x2013;" 
 />
    <glyph glyph-name="emdash" unicode="&#x2014;" 
 />
    <glyph glyph-name="quoteleft" unicode="&#x2018;" horiz-adv-x="190" 
d="M126 872q52 -4 44 -88l-26 -154q-4 -24 -18 -26h-62q-14 2 -18 26l-26 154q-8 84 44 88h62z" />
    <glyph glyph-name="quoteright" unicode="&#x2019;" horiz-adv-x="190" 
d="M126 872q52 -4 44 -88l-26 -154q-4 -24 -18 -26h-62q-14 2 -18 26l-26 154q-8 84 44 88h62z" />
    <glyph glyph-name="quotesinglbase" unicode="&#x201a;" 
 />
    <glyph glyph-name="quotedblleft" unicode="&#x201c;" horiz-adv-x="328" 
d="M108 872q52 -4 44 -88l-26 -154q-4 -24 -18 -26h-28q-14 2 -18 26l-26 154q-8 84 44 88h28zM248 872q52 -4 44 -88l-26 -154q-4 -24 -18 -26h-28q-14 2 -18 26l-26 154q-8 84 44 88h28z" />
    <glyph glyph-name="quotedblright" unicode="&#x201d;" horiz-adv-x="328" 
d="M108 872q52 -4 44 -88l-26 -154q-4 -24 -18 -26h-28q-14 2 -18 26l-26 154q-8 84 44 88h28zM248 872q52 -4 44 -88l-26 -154q-4 -24 -18 -26h-28q-14 2 -18 26l-26 154q-8 84 44 88h28z" />
    <glyph glyph-name="quotedblbase" unicode="&#x201e;" 
 />
    <glyph glyph-name="dagger" unicode="&#x2020;" 
 />
    <glyph glyph-name="daggerdbl" unicode="&#x2021;" 
 />
    <glyph glyph-name="bullet" unicode="&#x2022;" 
 />
    <glyph glyph-name="ellipsis" unicode="&#x2026;" 
 />
    <glyph glyph-name="perthousand" unicode="&#x2030;" 
 />
    <glyph glyph-name="guilsinglleft" unicode="&#x2039;" 
 />
    <glyph glyph-name="guilsinglright" unicode="&#x203a;" 
 />
    <glyph glyph-name="Euro" unicode="&#x20ac;" 
 />
    <glyph glyph-name="trademark" unicode="&#x2122;" 
 />
    <glyph glyph-name="uni2219" unicode="&#x2219;" 
 />
  </font>
</defs>
</svg>
